<svg xmlns="http://www.w3.org/2000/svg" xmlns:xlink="http://www.w3.org/1999/xlink" viewBox="0 0 261.48 234.93"><defs><style>.cls-1{fill:none;}.cls-2{isolation:isolate;}.cls-3{fill:#f6f6f6;}.cls-4{fill:#f4f7f9;}.cls-5{fill:#a6aeba;}.cls-6{fill:#ff8a95;}.cls-7{fill:#f74455;}.cls-8{fill:#d2dceb;}.cls-9{fill:#eaaf9d;}.cls-10{fill:#fec4ad;}.cls-11{fill:#4c3f3b;}.cls-12{fill:#c92411;}.cls-13{fill:#a33434;}.cls-14{fill:#b93e3d;}.cls-15{fill:#ad8373;}.cls-16{fill:#dbdbdb;}.cls-17{fill:#f9f9f9;}.cls-18{fill:#133a50;}.cls-19{fill:#f8b617;}.cls-20{fill:#353535;}.cls-21{fill:#0d2585;}.cls-22{fill:#ee4036;}.cls-23{fill:#b72f27;}.cls-24{fill:#640800;}.cls-25{fill:#ba3128;}.cls-26{fill:#ad2c23;}.cls-27{fill:#8d1f16;}.cls-28{fill:#ffcf6b;}.cls-29{fill:#f7f7f7;}.cls-30{fill:#670b00;}.cls-31{fill:#d0d2d3;}.cls-32{fill:#96999b;}.cls-33{fill:#e2e3e4;}.cls-34,.cls-37,.cls-45,.cls-48{mix-blend-mode:multiply;}.cls-35{fill:#a3a3a3;}.cls-36{fill:#007cc1;}.cls-37,.cls-42{fill:#c1c3c5;}.cls-38{fill:#df3d62;}.cls-39{fill:#fcb93e;}.cls-40{fill:#ed963a;}.cls-41{fill:#00b8bb;}.cls-43{fill:#76132d;}.cls-44{fill:#00b4f0;}.cls-45{fill:#0d0703;}.cls-46,.cls-48{fill:#2c2825;}.cls-47{fill:#ffc449;}.cls-49{fill:#f79544;}.cls-50{fill:#e8e8e8;}.cls-51{fill:#413389;}.cls-52{fill:#4c398d;}.cls-53{fill:#3a296a;}.cls-54{fill:#d6eaf7;}.cls-55{fill:#d1d1d1;}.cls-56{fill:#839acf;}.cls-57{fill:#dee3f0;}.cls-58{fill:#008ea6;}.cls-59{fill:#007b8e;}.cls-60{fill:#00b5d4;}.cls-61{fill:#69c4d8;}.cls-62{fill:#cbd0db;}.cls-63{fill:#7400d3;}.cls-64{fill:#fefefe;}.cls-65{fill:#333;}.cls-66{fill:#6e00dd;}.cls-67{fill:#56009f;}.cls-68{clip-path:url(#clip-path);}.cls-69{fill:#eae2da;}.cls-70{fill:#b76742;}.cls-71{fill:#af5230;}.cls-72{fill:#efeef3;}.cls-73{fill:#f6b4a8;}.cls-74{fill:#252918;}.cls-75{fill:#efaca3;}.cls-76{fill:#c62500;}.cls-77{fill:#d5250d;}</style><clipPath id="clip-path" transform="translate(-20 -32.22)"><rect class="cls-1" x="98.98" y="72.74" width="49.34" height="64.79"/></clipPath></defs><title>Online Education</title><g class="cls-2"><g id="Layer_1" data-name="Layer 1"><path class="cls-3" d="M56.12,61s5.36-40.33,51.37-25.54l27.83,10.76s26,10.78,74.11,3.69c0,0,25.15-9.74,40.67,20.17,0,0,38.44,57.92,30.23,132.76,0,0-2.5,39-32.46,33.16,0,0-22-7.64-49.59,9.41,0,0-38.88,18.37-78.48-1.34L74.49,219s-6.94-4-17.63.14c0,0-23.88,7.48-27.22-24,0,0-1.38-4.34,2.76-12.43,0,0,12.22-31.26-4.37-45.71,0,0-19.26-22.18,1.87-45,0,0,9.1-10.75,17.66-15.29C47.56,76.65,53.45,73.29,56.12,61Z" transform="translate(-20 -32.22)"/><ellipse class="cls-4" cx="81.52" cy="229.51" rx="23.06" ry="4"/><ellipse class="cls-4" cx="180.82" cy="228.93" rx="29.18" ry="6"/><path class="cls-5" d="M82.27,230.8c-.16,0-.6.9-.6.9v1.72h6.48v2.81h7.48v-2.71h7.23v-1.83Z" transform="translate(-20 -32.22)"/><path class="cls-6" d="M77.78,231.68c-2.23.55-2.72-14.77-2.72-14.77.68-6.5-2-13.84-2-13.84.19-.43-4.47-10.66-4.47-10.66-1.23-3.62,2-3.51,2-3.51h8.22l.13.42-4.3,5,3.67,15.25V226l21.5,2.2v3.44Z" transform="translate(-20 -32.22)"/><path class="cls-7" d="M82.41,191l2.39,19.92,4.41,16.63-11.58-.15c-.55-1.29-.8-12.56-.8-12.56.31-1.84-.67-7.42-.67-7.42-.73-4.1-5.39-15.93-5.39-15.93-.68-1.9,1-2.17,1-2.17h7.12Z" transform="translate(-20 -32.22)"/><rect class="cls-8" x="70.24" y="203.99" width="3.15" height="2.86"/><rect class="cls-5" x="70.77" y="206.85" width="2.09" height="11.4"/><polygon class="cls-8" points="73.26 224.09 72.85 224.09 72.85 218.25 70.77 218.25 70.77 224.17 70.28 224.17 70.28 227.04 73.26 227.04 73.26 224.09"/><polygon class="cls-5" points="79.59 228.85 73.26 224.54 73.26 226.62 78.89 229.31 79.59 228.85"/><polygon class="cls-5" points="63.95 228.85 70.28 224.54 70.28 226.58 64.85 229.31 63.95 228.85"/><path class="cls-9" d="M119,262a58.37,58.37,0,0,0-2.36-8.28s-1.27-4.77-1.9-15.37A95.81,95.81,0,0,0,113,222s-7.88,6.1-7.71,6.27,6.1,19.72,6.1,19.72l.4,2.42-.51.63-.41,2,2.13,2.3s1,2.71,1.27,3.26S118.13,262.6,119,262Z" transform="translate(-20 -32.22)"/><path class="cls-10" d="M112.89,222.29c.26.05.34,6.9-.73,16.65,0,0-1.46,13.51-.61,14.74l1,8.86-2-.52-2.3-3.63-.46-3.74L106,251.49l1.09-1.15s-.22-5.22-.58-7.92c-.06-.43-.93-7.61-.32-10.82C106.18,231.6,111.88,222.11,112.89,222.29Z" transform="translate(-20 -32.22)"/><path class="cls-11" d="M90.41,175s-9.13,4-5.14,15.94c0,0-3.36-3.26-1.21-10.19l-1.38-.46s-.67-1.3-1.25-.22a2.87,2.87,0,0,0,.5,2.5s-1.31,2.76-1,3.84l0,2.52a4.63,4.63,0,0,1-6.27,0,4.94,4.94,0,0,1-1.48-4.62,4.48,4.48,0,0,1,2-2.82l.34-.89s-.92-6.71,4.65-9.51c0,0,5.21-2.42,8.9,1.63,0,0,4.75.12,4.94,6.1,0,0,.43,5.18-2.79,5.53l-4-6.07Z" transform="translate(-20 -32.22)"/><path class="cls-9" d="M91.79,212.59s9.38-.39,11.11-1.63l.65.81h5.08s-1.88-2.77-3.42-2.69h-3.75L90.7,210.84Z" transform="translate(-20 -32.22)"/><path class="cls-10" d="M90.4,175a5.6,5.6,0,0,1,1,4.72s-1.19,2.26,1.09,2.8c0,0,0,.85-1.3,1.23l.06.84-1.43.63s-.27.64.57,1.15H90l.09,1.44s-1.41,1.12-4.14-1c0,0,.38,4.44,1.36,5.05l-6.43.67v-6.35s.11-2.63,1.06-3.66c0,0-1-.19-.55-2.42,0,0,.27-1,1-.32a2.27,2.27,0,0,0,1.69.76s.79-.17.9-.36S87.55,175.45,90.4,175Z" transform="translate(-20 -32.22)"/><path class="cls-12" d="M91.24,184.62s.76,1.4-1.43.63A5.88,5.88,0,0,1,91.24,184.62Z" transform="translate(-20 -32.22)"/><path class="cls-12" d="M90.41,186.4s1.84-.11-.58-1.15a.85.85,0,0,0,.46,1.11Z" transform="translate(-20 -32.22)"/><path class="cls-13" d="M80.41,185.48s-5-1.68-4.89-4.8l-.41.92S74.47,185.73,80.41,185.48Z" transform="translate(-20 -32.22)"/><path class="cls-14" d="M81,192.48c0-.11,4.14-1.08,6.33-.49l6,7a3.81,3.81,0,0,1,.81,2.14,3.12,3.12,0,0,0-.07.66l-1.37,5-1,4.39s0,2.45.3,2.57a23.88,23.88,0,0,1-8.4.65l-1.76-1.57-.23-.81S78.48,204.57,81,192.48Z" transform="translate(-20 -32.22)"/><path class="cls-13" d="M82.37,196.53s-1,4.83,1.58,8.59c0,0,2.64,3.57,4.85,3.07L91,202.38s-.08-3.06-3.34-6.62Z" transform="translate(-20 -32.22)"/><path class="cls-15" d="M82.81,213.65s-5.19,4.94.44,12.29A12.63,12.63,0,0,0,89,229.1a62.81,62.81,0,0,1,5.08,6.42s2.11,2.68,3.57,2.76c.69,0,1.3.23,3.33-1.34,0,0,9.9-9.36,12-14.93a101.09,101.09,0,0,0-19.14-4.89s-1.16-.61-1.85-3.49c0,0-1.57.92-8.32.69A3.21,3.21,0,0,0,82.81,213.65Z" transform="translate(-20 -32.22)"/><path class="cls-11" d="M106.62,256.16l-.15,3.89a1.42,1.42,0,0,1-1.15-.61,18.38,18.38,0,0,0,0-4.29s-.57-3.33,1-3.65c0,0,.69.14,2.17,3.26l1.78,5.87s2.53,2.67,4.43,3.16c0,0-.69,1-2.41.23l-1.94-.8-2-1S108.23,258.33,106.62,256.16Z" transform="translate(-20 -32.22)"/><path class="cls-11" d="M112.25,260.32h.41a28,28,0,0,1-.41-3.74,8.81,8.81,0,0,1,2.39,5.53s5.73,2.41,6.52.69c0,0-5.17-1.58-6.79-5.33,0,0,.4-2.21-3-5.29Z" transform="translate(-20 -32.22)"/><path class="cls-10" d="M83,195.26s1.7-3.12,4-.26c0,0,1,1.13,1.81,5L91,208.65l12.19.62,3.5-.08a2.47,2.47,0,0,1,2.27.61s2.73,1.93,2.18,4a3.67,3.67,0,0,1-2.4-1.09.91.91,0,0,0-1.06-.31s-1.29.17-2.79-1.5c0,0-5.07,1.93-15.41,1.79,0,0-1.74-1.33-4-6.65l-2-5.1A7.54,7.54,0,0,1,83,195.26Z" transform="translate(-20 -32.22)"/><path class="cls-11" d="M90.41,175s-9.37,4.23-5.53,16c0,0-3-3.44-.94-10.28C83.88,180.58,86.18,175,90.41,175Z" transform="translate(-20 -32.22)"/><polygon class="cls-16" points="172.4 182.97 175.34 182.97 176.49 189.59 184.58 234.11 182.94 234.11 182.45 231.66 172.4 182.97"/><path class="cls-5" d="M207.68,234v1.83h7.23v2.71h7.47v-2.82h6.48V234s-.43-.9-.59-.9Z" transform="translate(-20 -32.22)"/><path class="cls-6" d="M210.71,234v-3.44l21.5-2.2V211.9l3.67-15.25-4.3-5,.13-.42h8.21s3.21-.11,2,3.5c0,0-4.66,10.24-4.47,10.67,0,0-2.64,7.34-2,13.84,0,0-.49,15.32-2.72,14.77Z" transform="translate(-20 -32.22)"/><path class="cls-7" d="M231.6,191.66h7.13s1.72.27,1,2.17c0,0-4.66,11.83-5.39,15.93,0,0-1,5.58-.68,7.42,0,0-.24,11.27-.79,12.56l-11.58.15,4.41-16.63,2.39-19.92Z" transform="translate(-20 -32.22)"/><path class="cls-17" d="M212.81,216.11l3.75-.3-.62-7.24-.44-6.72s.29-11.82.82-13.38v-.55l-.57,1.09-1.68,3.58-1.78,5.58-.43,3.46.25,4Z" transform="translate(-20 -32.22)"/><polygon class="cls-18" points="156.86 225.43 166.99 228.78 167.73 226.25 164.62 224.12 156.86 225.43"/><path class="cls-10" d="M184.62,256.45s-.33,3,3.2,2.14l5.64-13.91,2.44,2.48,3.54,13.24a2.43,2.43,0,0,0,3.8.49l-2.86-26.57-.34-2.8,2.53-.9h5.52l6.6-4.12-11.45-7.24L197,221.73s-3.7,1.32-5.22,4.28Z" transform="translate(-20 -32.22)"/><path class="cls-19" d="M216.6,216.69s5.86,2.58,10.79,0c0,0-1-11.73,1.47-21.38l-4.43-6.68L220.26,185h-4.78s-2.6,1.63-2.47,2.26l-1.85,9.55a5.15,5.15,0,0,0,0,3.86l.07,5v3.92l-.45,2.94-.08,4.34,2-.65,0-6.76-.13-4.41.13-5.43s2.21-10.35,3.51-11.27a76.67,76.67,0,0,0-.62,16l.62,8.46,3.14-.18.07,2.71-2.91.06Z" transform="translate(-20 -32.22)"/><path class="cls-20" d="M213.12,186.92s-7.29-6.37-3.43-13.58l14.37,6.78Z" transform="translate(-20 -32.22)"/><path class="cls-21" d="M215.57,185.39l-1.08,1.73s-.25,2.39.37,2.64l1.59-2.64,1.08,3.21,2.72-2.47,1.15-3.29Z" transform="translate(-20 -32.22)"/><path class="cls-10" d="M209.69,173.34s.06,3.56.54,4.23l-.27,2.57h1.26L212.5,183a.65.65,0,0,0,.8.31s2-1.23,2.27.54v2.08s-.3,3.34,4.75-.9l.64-9.94Z" transform="translate(-20 -32.22)"/><polygon class="cls-16" points="66.83 182.98 193.15 182.98 193.15 182.98 197.05 183.12 197.05 183.12 199.77 183.06 199.83 180.37 196.89 180.37 66.83 180.37 66.83 182.98"/><path class="cls-20" d="M209.69,173.34s3,4,5.57,5.33c0,0,5.44,2.33,5.15,8,0,0-1.17,5,2.27,3.19l1.77-1.23s1.54-2.72,4.05-1c0,0,2.33.43-.31,7.66,0,0,3.26-.06,4.05-6.56,0,0-.37-4.53-4.23-6.62,0,0-2.72-1.83-3.62-7.06,0,0-1.84-8.76-10.66-6.74A7.74,7.74,0,0,0,209.69,173.34Z" transform="translate(-20 -32.22)"/><path class="cls-10" d="M211.74,205.58l7.35-2.32,5.58-14.83a2.76,2.76,0,0,1,4-1s1.78.9.46,5.26c0,0-3.4,10.36-5.12,12.14,0,0-1.31,2.26-3.35,2.57l-18,3.74H192.19l-.37-2.09,17.1-5.75,2.27-11.7s.43-3.76,2.08-4.7c0,0-2.21,10.48-2,12.49Z" transform="translate(-20 -32.22)"/><path class="cls-21" d="M202.67,219.43s9,2.53,4.79,11.27c0,0,12.11-.33,16.84-1.23,0,0,6.57-1.14,3.91-10.86a5.94,5.94,0,0,1-.31-3.05l-.63-.3-10.74.54-3.74.31h0Z" transform="translate(-20 -32.22)"/><polygon class="cls-8" points="157.84 161.6 160.69 180.31 172.38 180.31 172.38 179 171.47 178.96 169.02 161.6 157.84 161.6"/><polygon class="cls-5" points="187.24 180.31 187.24 179 172.38 179 169.02 161.6 171.47 178.96 171.56 180.31 187.24 180.31"/><rect class="cls-8" x="197.16" y="206.33" width="3.15" height="2.86"/><rect class="cls-5" x="197.69" y="209.19" width="2.09" height="11.4"/><polygon class="cls-8" points="197.28 229.38 200.26 229.38 200.26 226.51 199.77 226.51 199.77 220.59 197.69 220.59 197.69 226.43 197.28 226.43 197.28 229.38"/><polygon class="cls-5" points="191.65 231.65 197.28 228.96 197.28 226.88 190.95 231.19 191.65 231.65"/><polygon class="cls-5" points="205.69 231.65 200.26 228.92 200.26 226.88 206.6 231.19 205.69 231.65"/><polygon class="cls-16" points="167.73 182.97 178.26 234.7 179.74 234.7 170.26 182.97 167.73 182.97"/><ellipse class="cls-5" cx="164.61" cy="171.6" rx="1.3" ry="2.62"/><polygon class="cls-8" points="100.61 161.67 98.16 179.03 97.26 179.07 97.26 180.38 108.94 180.38 111.8 161.67 100.61 161.67"/><polygon class="cls-5" points="98.08 180.38 98.16 179.03 100.61 161.67 97.26 179.07 82.39 179.07 82.39 180.38 98.08 180.38"/><ellipse class="cls-5" cx="105.02" cy="171.67" rx="1.3" ry="2.62"/><path class="cls-18" d="M195.63,266.29l3.57.33,4.5-3.1-.42-2.72-3.8-.49S197.67,264.91,195.63,266.29Z" transform="translate(-20 -32.22)"/><path class="cls-22" d="M169.8,210.71a.67.67,0,0,1-.4.86h0a.68.68,0,0,1-.87-.4l-4-11.21a.66.66,0,0,1,.4-.86h0a.67.67,0,0,1,.87.39Z" transform="translate(-20 -32.22)"/><path class="cls-22" d="M165.72,200.08a.68.68,0,0,1-.93.2h0a.68.68,0,0,1-.2-.93l6.92-9.88a.66.66,0,0,1,.93-.2h0a.68.68,0,0,1,.2.93Z" transform="translate(-20 -32.22)"/><path class="cls-23" d="M166.76,199.69a1.44,1.44,0,1,1-1.43-1.43A1.44,1.44,0,0,1,166.76,199.69Z" transform="translate(-20 -32.22)"/><path class="cls-24" d="M166,199.69a.7.7,0,0,1-.7.71.71.71,0,0,1-.71-.71.7.7,0,0,1,.71-.7A.7.7,0,0,1,166,199.69Z" transform="translate(-20 -32.22)"/><path class="cls-25" d="M173.47,212.63v-1a1.07,1.07,0,0,0-1.06-1.07h-5.77a1.07,1.07,0,0,0-1.07,1.07v1Z" transform="translate(-20 -32.22)"/><path class="cls-26" d="M172.19,189.63a.66.66,0,0,0-.93.2l-1.12,1.59.9,1.07,1.35-1.93A.68.68,0,0,0,172.19,189.63Z" transform="translate(-20 -32.22)"/><rect class="cls-22" x="168.03" y="186.07" width="4.13" height="2.71" transform="translate(-90.49 233.8) rotate(-65.87)"/><path class="cls-27" d="M178.53,191.2c-1.2,2.68-2.8,4.58-3.56,4.24s-.41-2.79.79-5.48,2.8-4.58,3.56-4.23S179.73,188.52,178.53,191.2Z" transform="translate(-20 -32.22)"/><path class="cls-28" d="M178.14,191.19A2.34,2.34,0,1,1,177,188.1,2.35,2.35,0,0,1,178.14,191.19Z" transform="translate(-20 -32.22)"/><path class="cls-22" d="M175.76,190c1-2.21,2.62-4,3.46-4.28l-7.56.2L170,189.62l4.88,5.77C174.54,194.56,174.77,192.18,175.76,190Z" transform="translate(-20 -32.22)"/><path class="cls-29" d="M152,203.06v.86a.25.25,0,1,1-.49,0v-.86h-1.14v.86a.24.24,0,1,1-.48,0v-.86h-1.14v.86a.25.25,0,1,1-.49,0v-.86h-1.14v.86a.25.25,0,1,1-.49,0v-.86h-1.14v.86a.25.25,0,1,1-.49,0v-.86h-1.13v.86a.25.25,0,1,1-.49,0v-.86h-1.14v.86a.25.25,0,1,1-.49,0v-.86h-.61v9.52h11.47v-9.52Z" transform="translate(-20 -32.22)"/><path class="cls-22" d="M152.63,205.85v-2.79H152v.86a.25.25,0,1,1-.49,0v-.86h-1.14v.86a.24.24,0,1,1-.48,0v-.86h-1.14v.86a.25.25,0,1,1-.49,0v-.86h-1.14v.86a.25.25,0,1,1-.49,0v-.86h-1.14v.86a.25.25,0,1,1-.49,0v-.86h-1.13v.86a.25.25,0,1,1-.49,0v-.86h-1.14v.86a.25.25,0,1,1-.49,0v-.86h-.61v2.79Z" transform="translate(-20 -32.22)"/><path class="cls-30" d="M141.77,203.92v-.59a.44.44,0,0,0-.21.38.46.46,0,0,0,.45.46A.25.25,0,0,1,141.77,203.92Z" transform="translate(-20 -32.22)"/><path class="cls-30" d="M142.26,203.33v.59a.24.24,0,0,1-.2.24.45.45,0,0,0,.41-.45A.44.44,0,0,0,142.26,203.33Z" transform="translate(-20 -32.22)"/><path class="cls-30" d="M143.4,203.92v-.59a.44.44,0,0,0-.21.38.46.46,0,0,0,.45.46A.25.25,0,0,1,143.4,203.92Z" transform="translate(-20 -32.22)"/><path class="cls-30" d="M143.89,203.33v.59a.25.25,0,0,1-.2.24.45.45,0,0,0,.41-.45A.46.46,0,0,0,143.89,203.33Z" transform="translate(-20 -32.22)"/><path class="cls-30" d="M145,203.92v-.59a.46.46,0,0,0,.25.84A.25.25,0,0,1,145,203.92Z" transform="translate(-20 -32.22)"/><path class="cls-30" d="M145.51,203.33v.59a.24.24,0,0,1-.19.24.45.45,0,0,0,.19-.83Z" transform="translate(-20 -32.22)"/><path class="cls-30" d="M146.65,203.92v-.59a.44.44,0,0,0-.21.38.46.46,0,0,0,.46.46A.25.25,0,0,1,146.65,203.92Z" transform="translate(-20 -32.22)"/><path class="cls-30" d="M147.14,203.33v.59a.24.24,0,0,1-.19.24.45.45,0,0,0,.4-.45A.44.44,0,0,0,147.14,203.33Z" transform="translate(-20 -32.22)"/><path class="cls-30" d="M148.28,203.92v-.59a.44.44,0,0,0-.21.38.46.46,0,0,0,.45.46A.25.25,0,0,1,148.28,203.92Z" transform="translate(-20 -32.22)"/><path class="cls-30" d="M148.77,203.33v.59a.25.25,0,0,1-.2.24.45.45,0,0,0,.41-.45A.46.46,0,0,0,148.77,203.33Z" transform="translate(-20 -32.22)"/><path class="cls-30" d="M149.91,203.92v-.59a.45.45,0,0,0-.22.38.47.47,0,0,0,.46.46A.24.24,0,0,1,149.91,203.92Z" transform="translate(-20 -32.22)"/><path class="cls-30" d="M150.39,203.33v.59a.24.24,0,0,1-.19.24.45.45,0,0,0,.19-.83Z" transform="translate(-20 -32.22)"/><path class="cls-30" d="M151.53,203.92v-.59a.46.46,0,0,0,.25.84A.25.25,0,0,1,151.53,203.92Z" transform="translate(-20 -32.22)"/><path class="cls-30" d="M152,203.33v.59a.24.24,0,0,1-.19.24.45.45,0,0,0,.4-.45A.44.44,0,0,0,152,203.33Z" transform="translate(-20 -32.22)"/><path class="cls-31" d="M142.26,203.92a.25.25,0,0,1-.25.25h0a.25.25,0,0,1-.24-.25v-1.07a.24.24,0,0,1,.24-.24h0a.25.25,0,0,1,.25.24Z" transform="translate(-20 -32.22)"/><path class="cls-31" d="M143.89,203.92a.25.25,0,0,1-.25.25h0a.25.25,0,0,1-.24-.25v-1.07a.24.24,0,0,1,.24-.24h0a.25.25,0,0,1,.25.24Z" transform="translate(-20 -32.22)"/><path class="cls-31" d="M145.51,203.92a.25.25,0,0,1-.24.25h0a.25.25,0,0,1-.25-.25v-1.07a.25.25,0,0,1,.25-.24h0a.24.24,0,0,1,.24.24Z" transform="translate(-20 -32.22)"/><path class="cls-31" d="M147.14,203.92a.25.25,0,0,1-.24.25h0a.25.25,0,0,1-.25-.25v-1.07a.25.25,0,0,1,.25-.24h0a.24.24,0,0,1,.24.24Z" transform="translate(-20 -32.22)"/><path class="cls-31" d="M148.77,203.92a.25.25,0,0,1-.25.25h0a.25.25,0,0,1-.24-.25v-1.07a.24.24,0,0,1,.24-.24h0a.25.25,0,0,1,.25.24Z" transform="translate(-20 -32.22)"/><path class="cls-31" d="M150.39,203.92a.24.24,0,0,1-.24.25h0a.24.24,0,0,1-.24-.25v-1.07a.24.24,0,0,1,.24-.24h0a.24.24,0,0,1,.24.24Z" transform="translate(-20 -32.22)"/><path class="cls-31" d="M152,203.92a.25.25,0,0,1-.24.25h0a.25.25,0,0,1-.25-.25v-1.07a.25.25,0,0,1,.25-.24h0a.24.24,0,0,1,.24.24Z" transform="translate(-20 -32.22)"/><rect class="cls-32" x="121.77" y="174.3" width="1.42" height="1.38"/><rect class="cls-32" x="123.89" y="174.3" width="1.42" height="1.38"/><rect class="cls-32" x="126.01" y="174.3" width="1.42" height="1.38"/><rect class="cls-32" x="128.12" y="174.3" width="1.42" height="1.38"/><rect class="cls-22" x="130.24" y="174.3" width="1.42" height="1.38"/><rect class="cls-32" x="121.77" y="176.24" width="1.42" height="1.38"/><rect class="cls-32" x="123.89" y="176.24" width="1.42" height="1.38"/><rect class="cls-32" x="126.01" y="176.24" width="1.42" height="1.38"/><rect class="cls-32" x="128.12" y="176.24" width="1.42" height="1.38"/><rect class="cls-22" x="130.24" y="176.24" width="1.42" height="1.38"/><rect class="cls-32" x="121.77" y="178.18" width="1.42" height="1.38"/><rect class="cls-32" x="123.89" y="178.18" width="1.42" height="1.38"/><rect class="cls-32" x="126.01" y="178.18" width="1.42" height="1.38"/><rect class="cls-32" x="128.12" y="178.18" width="1.42" height="1.38"/><rect class="cls-22" x="130.24" y="178.18" width="1.42" height="1.38"/><path class="cls-33" d="M104.19,133c0-2.89,1.72-5.23,3.38-5.23H60a5.23,5.23,0,1,0,0,10.46h47.59C105.91,138.26,104.19,135.92,104.19,133Z" transform="translate(-20 -32.22)"/><g class="cls-34"><path class="cls-35" d="M107.57,127.8H60a5,5,0,0,0-1.56.24h48.22A2,2,0,0,1,107.57,127.8Z" transform="translate(-20 -32.22)"/><path class="cls-35" d="M56.45,129.2h48.92l.19-.24H56.73Z" transform="translate(-20 -32.22)"/><path class="cls-35" d="M55.51,130.36h49.23l.1-.24H55.67C55.61,130.2,55.56,130.28,55.51,130.36Z" transform="translate(-20 -32.22)"/><path class="cls-35" d="M55,131.53h49.38l.06-.25H55.08Z" transform="translate(-20 -32.22)"/><path class="cls-35" d="M54.77,132.69h49.44a1.94,1.94,0,0,1,0-.24H54.8A2,2,0,0,0,54.77,132.69Z" transform="translate(-20 -32.22)"/><path class="cls-35" d="M54.8,133.85h49.43a1.94,1.94,0,0,1,0-.24H54.77A2,2,0,0,0,54.8,133.85Z" transform="translate(-20 -32.22)"/><path class="cls-35" d="M55.08,135h49.35l-.06-.24H55Z" transform="translate(-20 -32.22)"/><path class="cls-35" d="M55.67,136.18h49.17c0-.08-.07-.16-.1-.25H55.51A2.13,2.13,0,0,0,55.67,136.18Z" transform="translate(-20 -32.22)"/><path class="cls-35" d="M56.73,137.34h48.83a2.35,2.35,0,0,1-.19-.25H56.45Z" transform="translate(-20 -32.22)"/><path class="cls-35" d="M60,138.5h47.59a2.07,2.07,0,0,1-.93-.24H58.42A5.36,5.36,0,0,0,60,138.5Z" transform="translate(-20 -32.22)"/></g><path class="cls-36" d="M107.57,127.8v-1.36H59a6.59,6.59,0,0,0,0,13.17h48.59v-1.43L60,138.26a5.23,5.23,0,1,1,0-10.46Z" transform="translate(-20 -32.22)"/><path class="cls-37" d="M107.57,127.24v-.8H59a6.51,6.51,0,0,0-3.14.8Z" transform="translate(-20 -32.22)"/><rect class="cls-38" x="33.38" y="82.45" width="53.2" height="11.77"/><rect class="cls-39" x="39.79" y="82.45" width="1.91" height="11.77"/><rect class="cls-39" x="44.09" y="82.45" width="1.91" height="11.77"/><path class="cls-39" d="M79.69,120.56a3.88,3.88,0,1,1-3.88-3.88A3.88,3.88,0,0,1,79.69,120.56Z" transform="translate(-20 -32.22)"/><rect class="cls-39" x="66.52" y="82.45" width="15.57" height="11.77"/><path class="cls-33" d="M109.79,140.62H93.64a6.12,6.12,0,0,0,0,9.79h16.15Z" transform="translate(-20 -32.22)"/><g class="cls-34"><rect class="cls-35" x="71.05" y="108.4" width="18.74" height="0.22"/><rect class="cls-35" x="71.05" y="109.46" width="18.74" height="0.22"/><rect class="cls-35" x="71.05" y="110.52" width="18.74" height="0.22"/><rect class="cls-35" x="71.05" y="111.58" width="18.74" height="0.22"/><rect class="cls-35" x="71.05" y="112.65" width="18.74" height="0.22"/><rect class="cls-35" x="71.05" y="113.71" width="18.74" height="0.22"/><rect class="cls-35" x="71.05" y="114.77" width="18.74" height="0.22"/><rect class="cls-35" x="71.05" y="115.84" width="18.74" height="0.22"/><rect class="cls-35" x="71.05" y="116.9" width="18.74" height="0.22"/><rect class="cls-35" x="71.05" y="117.96" width="18.74" height="0.22"/></g><path class="cls-39" d="M94.44,151.41H52.62a8.34,8.34,0,0,1,0-11.8H94.44A8.34,8.34,0,0,0,94.44,151.41Z" transform="translate(-20 -32.22)"/><rect class="cls-39" x="32.63" y="107.39" width="57.16" height="1.01"/><rect class="cls-39" x="32.63" y="118.18" width="57.16" height="1.01"/><path class="cls-40" d="M92.46,142.74a8.27,8.27,0,0,1,1.11-2.12h16.21v-1H52.61a8.41,8.41,0,0,0-2,3.13Z" transform="translate(-20 -32.22)"/><path class="cls-41" d="M61.14,151.41H55.87a8.34,8.34,0,0,1,0-11.8h5.27A8.34,8.34,0,0,0,61.14,151.41Z" transform="translate(-20 -32.22)"/><path class="cls-41" d="M92.07,151.41H85.23a8.34,8.34,0,0,1,0-11.8h6.84A8.34,8.34,0,0,0,92.07,151.41Z" transform="translate(-20 -32.22)"/><path class="cls-41" d="M66.14,151.41H63.51a8.34,8.34,0,0,1,0-11.8h2.63A8.34,8.34,0,0,0,66.14,151.41Z" transform="translate(-20 -32.22)"/><g class="cls-34"><path class="cls-42" d="M60.21,139.61H55.87a8.43,8.43,0,0,0-2,3.13h5.27a8.31,8.31,0,0,1,2-3.13Z" transform="translate(-20 -32.22)"/><path class="cls-42" d="M90.24,139.61h-5a8.41,8.41,0,0,0-2,3.13H90.1a8.28,8.28,0,0,1,2-3.13Z" transform="translate(-20 -32.22)"/><path class="cls-42" d="M65,139.61H63.51a8.43,8.43,0,0,0-2,3.13h2.64a8.41,8.41,0,0,1,2-3.13Z" transform="translate(-20 -32.22)"/></g><path class="cls-33" d="M99.22,107.66c0-3,1.82-5.53,3.57-5.53H65.19a5.53,5.53,0,0,0,0,11.06h37.6C101,113.19,99.22,110.71,99.22,107.66Z" transform="translate(-20 -32.22)"/><g class="cls-34"><path class="cls-35" d="M102.79,102.13H65.19a5.28,5.28,0,0,0-1.65.26H101.8A2.15,2.15,0,0,1,102.79,102.13Z" transform="translate(-20 -32.22)"/><path class="cls-35" d="M61.46,103.62h39l.19-.26H61.75Z" transform="translate(-20 -32.22)"/><path class="cls-35" d="M60.47,104.85H99.79l.12-.26H60.63Z" transform="translate(-20 -32.22)"/><path class="cls-35" d="M59.92,106.08H99.41l.06-.26H60Z" transform="translate(-20 -32.22)"/><path class="cls-35" d="M59.68,107.3H99.24c0-.08,0-.17,0-.25H59.71Z" transform="translate(-20 -32.22)"/><path class="cls-35" d="M59.71,108.53H99.26c0-.08,0-.17,0-.25H59.68Z" transform="translate(-20 -32.22)"/><path class="cls-35" d="M60,109.76H99.47l-.06-.26H59.92Z" transform="translate(-20 -32.22)"/><path class="cls-35" d="M60.63,111H99.91l-.12-.26H60.47Z" transform="translate(-20 -32.22)"/><path class="cls-35" d="M61.75,112.22h38.91l-.19-.26h-39Z" transform="translate(-20 -32.22)"/><path class="cls-35" d="M65.19,113.44h37.6a2.27,2.27,0,0,1-1-.25H63.54A5.58,5.58,0,0,0,65.19,113.44Z" transform="translate(-20 -32.22)"/></g><path class="cls-43" d="M102.79,102.13V100.7H64.14a7,7,0,1,0,0,13.92h38.65V113.1l-37.6.09a5.53,5.53,0,0,1,0-11.06Z" transform="translate(-20 -32.22)"/><polygon class="cls-38" points="67.81 77.94 65.27 76.31 62.73 77.94 62.73 72.37 67.81 72.37 67.81 77.94"/><polygon class="cls-37" points="86.59 85.86 33.38 82.45 86.59 82.45 86.59 85.86"/><rect class="cls-36" x="29.7" y="119.19" width="60.56" height="7.32"/><rect class="cls-44" x="84.36" y="119.19" width="1.41" height="7.32"/><rect class="cls-44" x="34.53" y="119.19" width="6.94" height="7.32"/><rect class="cls-44" x="81.16" y="119.19" width="1.41" height="7.32"/><rect class="cls-37" x="29.7" y="119.19" width="60.56" height="2.08"/><path class="cls-45" d="M80.7,88.15s0,0,0,0c0-.59.91-1.07,2-1.07s2,.48,2,1.07v0Z" transform="translate(-20 -32.22)"/><rect class="cls-46" x="53.08" y="55.92" width="29.49" height="2.49"/><rect class="cls-46" x="42.9" y="55.92" width="9.24" height="2.49"/><path class="cls-47" d="M72.61,87.6a.47.47,0,0,1,.47.48V99.39a1.85,1.85,0,0,0-.47-.08,1.93,1.93,0,0,0-.48.08V88.08A.48.48,0,0,1,72.61,87.6Z" transform="translate(-20 -32.22)"/><path class="cls-46" d="M72.13,90.63v8.76h0A1.62,1.62,0,0,0,71,100.93v.22h-2.7V90.63Z" transform="translate(-20 -32.22)"/><path class="cls-46" d="M74.22,100.93a1.61,1.61,0,0,0-1.14-1.54V90.63h24.1v10.52h-23Z" transform="translate(-20 -32.22)"/><rect class="cls-48" x="48.29" y="58.41" width="3.85" height="3.41"/><rect class="cls-48" x="53.08" y="58.41" width="24.09" height="3.41"/><path class="cls-49" d="M71,104.85v-3.92a1.62,1.62,0,1,1,3.23,0v3.92Z" transform="translate(-20 -32.22)"/><ellipse class="cls-50" cx="136.52" cy="127.55" rx="33.53" ry="4.94"/><path class="cls-51" d="M241.16,100.68c0,9.41,9.72,5.27-5.27,5.27a5.27,5.27,0,1,1,5.27-5.27Z" transform="translate(-20 -32.22)"/><polygon class="cls-52" points="241.11 110.36 241.11 77.95 242.97 77.05 242.97 109.75 241.11 110.36"/><polygon class="cls-53" points="241.11 77.95 217.21 64.69 221.74 99.58 241.11 110.36 241.11 77.95"/><polygon class="cls-54" points="233.4 80.9 212.13 68.7 218.22 65.28 239.85 77.38 233.4 80.9"/><polygon class="cls-55" points="233.4 111.59 233.4 80.9 239.85 77.38 239.85 108.36 233.4 111.59"/><polygon class="cls-56" points="233.4 111.59 233.4 80.9 239.85 77.38 239.85 108.36 233.4 111.59"/><path class="cls-57" d="M238.41,97.61A3.87,3.87,0,0,0,236,96.8a3.91,3.91,0,0,0-3.91,3.91c0,.07,0,.14,0,.21h0v30.72l21.28,12.17v-30.7l6.45-3.52Z" transform="translate(-20 -32.22)"/><polygon class="cls-54" points="233.4 81.51 210.63 68.81 212.13 68.01 235.25 80.61 233.4 81.51"/><polygon class="cls-55" points="233.4 113.92 233.4 81.51 235.25 80.61 235.25 113.31 233.4 113.92"/><polygon class="cls-51" points="233.4 81.51 210.63 68.81 212.13 68.01 235.25 80.61 233.4 81.51"/><polygon class="cls-51" points="241.11 77.96 217.21 64.69 218.71 63.89 242.97 77.06 241.11 77.96"/><polygon class="cls-52" points="233.4 113.92 233.4 81.51 235.25 80.61 235.25 113.31 233.4 113.92"/><polygon class="cls-53" points="233.4 81.51 210.63 68.81 210.63 101.25 233.4 113.92 233.4 81.51"/><path class="cls-58" d="M231.36,107.53a4.91,4.91,0,1,1-4.9-4.91A4.9,4.9,0,0,1,231.36,107.53Z" transform="translate(-20 -32.22)"/><polygon class="cls-59" points="230.24 114.88 230.24 84.3 231.96 83.47 231.96 114.3 230.24 114.88"/><polygon class="cls-60" points="230.24 84.3 207.68 71.8 207.68 102.4 230.24 114.88 230.24 84.3"/><polygon class="cls-54" points="223.06 87.05 202.95 75.53 208.62 72.34 229.06 83.77 223.06 87.05"/><polygon class="cls-55" points="223.06 116.02 223.06 87.05 229.06 83.77 229.06 113.01 223.06 116.02"/><polygon class="cls-56" points="223.06 116.02 223.06 87.05 229.06 83.77 229.06 113.01 223.06 116.02"/><path class="cls-57" d="M228.8,104.67a3.63,3.63,0,0,0-5.85,2.88c0,.07,0,.13,0,.2h0v29l20.11,11.49v-29l6-3.28Z" transform="translate(-20 -32.22)"/><polygon class="cls-54" points="223.06 87.61 201.56 75.63 202.95 74.89 224.78 86.78 223.06 87.61"/><polygon class="cls-55" points="223.06 118.19 223.06 87.61 224.78 86.78 224.78 117.61 223.06 118.19"/><polygon class="cls-58" points="223.06 87.61 201.56 75.63 202.95 74.89 224.78 86.78 223.06 87.61"/><polygon class="cls-58" points="230.24 84.31 207.68 71.8 209.07 71.06 231.96 83.48 230.24 84.31"/><polygon class="cls-59" points="223.06 118.19 223.06 87.61 224.78 86.78 224.78 117.61 223.06 118.19"/><polygon class="cls-60" points="223.06 87.61 201.56 75.63 201.56 106.23 223.06 118.19 223.06 87.61"/><polygon class="cls-61" points="204.49 128.49 229.01 114.53 197.9 98.07 172.78 111.86 204.49 128.49"/><path class="cls-57" d="M223.94,159.09l21.55-12.49v-3.75s-6.72-5.91-14.61-5.4c-2.75-5.34-14.31-9.31-14.31-9.31L195,140.48Z" transform="translate(-20 -32.22)"/><polygon class="cls-56" points="203.94 126.87 225.49 114.38 225.49 110.63 203.69 123.43 203.94 126.87"/><polygon class="cls-59" points="204.49 130.06 204.49 128.49 172.78 111.86 172.78 113.92 204.49 130.06"/><polygon class="cls-60" points="204.49 128.49 229.01 114.53 229.01 116.16 204.49 130.06 204.49 128.49"/><path class="cls-56" d="M223.94,159.09l-.25-3.44s-6.47-6.37-14.36-5.86c-2.75-5.34-14.31-9.31-14.31-9.31l-.3,3.29Z" transform="translate(-20 -32.22)"/><path class="cls-62" d="M228.87,136a1.9,1.9,0,0,1,1.31-.75h.21a1.9,1.9,0,0,1,.47,3.74l-21.31,12.52-2.21-2.75Z" transform="translate(-20 -32.22)"/><path class="cls-56" d="M207.08,149.73a1.9,1.9,0,1,0,1.9-1.9A1.9,1.9,0,0,0,207.08,149.73Z" transform="translate(-20 -32.22)"/><path class="cls-63" d="M219,142.17H101.17c-2.93,0-8.39.28-8.39-2.66l-2-68.57c0-2.94-.14-5.88,2.8-5.88L221,67c3.48,0,3.36,1.56,3.36,5l-2.8,65.77C221.53,140.77,221.94,142.17,219,142.17Z" transform="translate(-20 -32.22)"/><polygon class="cls-64" points="74.46 37.88 77.26 105.33 197.61 105.61 200.69 40.11 74.46 37.88"/><polygon class="cls-50" points="106.21 44.42 108.2 101.04 193.49 101.27 195.67 46.3 106.21 44.42"/><polygon class="cls-65" points="108.63 48.52 109.76 96.8 158.15 97 159.39 50.12 108.63 48.52"/><polygon class="cls-66" points="125.68 121.28 148.63 115.68 149.47 124.36 160.38 124.36 160.38 128.84 114.48 128.84 114.48 124.92 125.12 124.92 125.68 121.28"/><polygon class="cls-67" points="126.69 109.95 125.68 121.28 148.63 115.68 148.78 109.92 126.69 109.95"/><path class="cls-29" d="M141.5,87.26a7.47,7.47,0,0,0-5.3-2.2v7.5Z" transform="translate(-20 -32.22)"/><path class="cls-29" d="M138.55,87.6l-.61-.3,2.39-4.78a.35.35,0,0,1,.3-.19h2.73V83h-2.52Z" transform="translate(-20 -32.22)"/><path class="cls-29" d="M144.58,83.26H148V84h-3.46v-.77Z" transform="translate(-20 -32.22)"/><path class="cls-29" d="M144.58,84.8H148v.77h-3.46V84.8Z" transform="translate(-20 -32.22)"/><path class="cls-29" d="M144.58,86.34h1.92v.76h-1.92Z" transform="translate(-20 -32.22)"/><g class="cls-68"><path class="cls-69" d="M111,173.27h4.09s1.09-14.73,0-23.48l1.79-15.68,3.91,12s-2.33,6.52-2.12,25.37c0,0,2.47,1,4.09.56l5.09-24.64s1.62-2-.43-10.52L125,122.35H106.66s-.36,17.46,1.76,27.91Z" transform="translate(-20 -32.22)"/><path class="cls-70" d="M106.7,115.05l.29,5.18s-1.89,2.31,0,2.78c0,0,14.73,1.78,18-.66,0,0,.84-.38,0-1.93l-.33-16.48,1,.08,3.47-2.12,1.29-.88-4.21-7.57s-3.65-2.52-6.22-2.6l-8,0s-6.66.94-7.69,3.44l-3.11,7.65,5.23,2.37Z" transform="translate(-20 -32.22)"/><polygon class="cls-71" points="91.95 58.59 95.73 60.5 96.67 58.45 97.92 60.5 99.97 58.63 98.31 57.5 93.37 57.14 91.95 58.59"/><path class="cls-72" d="M115.73,92.72l.53.59-.68,5.92v17.85s1.43,6.73,2.42,3.76a23.63,23.63,0,0,0,1-16.25l-1.48-11.41.35-.46-1.25-2Z" transform="translate(-20 -32.22)"/><polygon class="cls-29" points="96.12 84.85 83.51 82.31 87.74 65.27 100.07 68 96.12 84.85"/><path class="cls-73" d="M101.15,101.9s-2.19,6.35-1.2,6.63c0,0,2.4,2.33,14.19.43,0,0,4.76,1.39,4.66-1.25,0,0,.81-3.77-2.84-2.5l-2,1.32-8.53-.67.71-1.75Z" transform="translate(-20 -32.22)"/><path class="cls-73" d="M125.61,103.94s3.26,5.88,4.13,5.33c0,0,3.34-.23,9.8-10.27l-2-1.45-5.74,5.54L130.4,101Z" transform="translate(-20 -32.22)"/><path class="cls-73" d="M121.37,80.69s.28,7.75-3.17,7.33l.11,1.7a4.13,4.13,0,0,1-5-.35s.23-.31,0-1.82l-1.41-5s-1.41-3.85.21-3.44.08,0,.08,0,7.62-2.86,8.59-1.4A13.42,13.42,0,0,1,121.37,80.69Z" transform="translate(-20 -32.22)"/><path class="cls-74" d="M113.48,89.12V84.79s-2.35-2.64-.47-3.44c0,0,1.37-.37,1.65,2.12V79.56s.19-1.08,1.93-1l4-.24s.87,4.69.94,1.26V77.29s3-2.08-.38-2.19c0,0,.07-3.24-3.85-.45,0,0-4.63-1.88-5.3,2.4,0,0-2.68.21-1,6.1A23.07,23.07,0,0,1,113.48,89.12Z" transform="translate(-20 -32.22)"/><path class="cls-75" d="M139.39,99.22a9.43,9.43,0,0,0,1.73-2.3s1-.29.62-.68c0,0,.3-.25,0-.45,0,0,.64-.38.07-.53,0,0,.61-.41.09-.63,0,0-.09-.11-.67.23,0,0-.74.43-.24.61,0,0-.44.28-.21.52,0,0-.41.37-.19.5l-.31.12.5-1.27s.09-.3.2-.32l-1,.11-2,2.7Z" transform="translate(-20 -32.22)"/><path class="cls-76" d="M139.85,98a.19.19,0,0,1-.31.07s-.18-.1,0-.37c0,0,7.32-14.28,7.81-14.55C147.33,83.18,144.66,88.78,139.85,98Z" transform="translate(-20 -32.22)"/><path class="cls-73" d="M137.86,97.23l1-2s.12-.65,1.16-.93a6.87,6.87,0,0,1,1.29-.18s.86-.18.49.28a3.56,3.56,0,0,1-1.61.86,2.86,2.86,0,0,1-.31,1.63l-1.42,1.48-.92-.84Z" transform="translate(-20 -32.22)"/></g><rect class="cls-77" x="170.05" y="50.95" width="23.52" height="1.19"/><rect class="cls-67" x="162.06" y="54.71" width="31.25" height="1.19"/><rect class="cls-67" x="162.06" y="58.26" width="31.25" height="1.19"/><rect class="cls-37" x="169.16" y="81.96" width="23.52" height="1.19"/><rect class="cls-37" x="161.17" y="85.72" width="31.25" height="1.19"/><rect class="cls-37" x="161.17" y="89.27" width="31.25" height="1.19"/><rect class="cls-67" x="161.94" y="61.96" width="13.13" height="1.19"/><rect class="cls-67" x="161.94" y="65.51" width="13.13" height="1.19"/><rect class="cls-77" x="176.59" y="61.93" width="16.69" height="1.19"/><rect class="cls-39" x="176.59" y="65.48" width="16.69" height="1.19"/><rect class="cls-39" x="162.69" y="69.73" width="7.66" height="9.62"/><rect class="cls-56" x="172.31" y="69.73" width="7.66" height="9.62"/><rect class="cls-65" x="181.93" y="69.73" width="10.69" height="9.62"/><rect class="cls-48" x="161.44" y="92.54" width="7.66" height="4.81"/><rect class="cls-7" x="171.06" y="92.54" width="7.66" height="4.81"/><rect class="cls-48" x="180.69" y="92.54" width="10.69" height="4.81"/><rect class="cls-69" x="111.36" y="93.19" width="44.67" height="0.71" rx="0.12"/><rect class="cls-76" x="111.3" y="93.16" width="13.19" height="0.74" rx="0.12"/><circle class="cls-7" cx="132.23" cy="72.29" r="4.86"/><polygon class="cls-64" points="130.45 69.64 130.45 74.63 135.26 72.49 130.45 69.64"/></g></g></svg>